<?xml version="1.0" encoding="utf-8"?>
<!-- Generator: Adobe Illustrator 23.0.2, SVG Export Plug-In . SVG Version: 6.00 Build 0)  -->
<svg version="1.1" xmlns="http://www.w3.org/2000/svg" xmlns:xlink="http://www.w3.org/1999/xlink" x="0px" y="0px"
	 viewBox="0 0 1280 1024" style="enable-background:new 0 0 1280 1024;" xml:space="preserve">
<style type="text/css">
	.st0{fill:#EFEFEF;}
	.st1{display:none;fill:#EFEFEF;}
</style>
<g id="Layer_1">
	<circle class="st0" cx="562.07" cy="370.46" r="61.67"/>
	<circle class="st0" cx="653.66" cy="360.69" r="73.88"/>
	<circle class="st0" cx="711.67" cy="405.26" r="75.72"/>
	<circle class="st0" cx="764.18" cy="421.14" r="65.95"/>
	<circle class="st0" cx="596.26" cy="465.71" r="69"/>
	<circle class="st0" cx="662.21" cy="479.15" r="65.34"/>
	<circle class="st1" cx="534.59" cy="430.91" r="51.29"/>
	<circle class="st0" cx="706.78" cy="491.97" r="57.4"/>
	<circle class="st0" cx="753.8" cy="490.14" r="44.57"/>
</g>
<g id="Layer_2">
	<circle class="st0" cx="210.96" cy="412.59" r="52.51"/>
	<circle class="st0" cx="274.47" cy="369.85" r="50.07"/>
	<circle class="st0" cx="273.25" cy="301.46" r="51.29"/>
	<circle class="st1" cx="232.33" cy="265.43" r="53.12"/>
	<circle class="st0" cx="181.65" cy="283.14" r="59.84"/>
	<circle class="st1" cx="122.42" cy="239.78" r="45.8"/>
	<circle class="st0" cx="184.1" cy="340.54" r="61.06"/>
	<circle class="st0" cx="158.37" cy="409.17" r="49.46"/>
	<circle class="st0" cx="98.61" cy="390.61" r="46.41"/>
	<circle class="st0" cx="87.62" cy="331.99" r="52.51"/>
	<circle class="st1" cx="79.68" cy="281.31" r="50.68"/>
</g>
<g id="Layer_3">
	<circle class="st0" cx="1025.52" cy="356.41" r="50.07"/>
	<circle class="st0" cx="1062.77" cy="387.55" r="51.9"/>
	<circle class="st1" cx="1147.65" cy="448" r="63.5"/>
	<circle class="st1" cx="1051.17" cy="460.22" r="68.39"/>
	<circle class="st0" cx="1005.37" cy="419.31" r="50.68"/>
	<circle class="st0" cx="1085.97" cy="319.16" r="45.8"/>
	<circle class="st0" cx="1132.99" cy="349.08" r="57.4"/>
	<circle class="st1" cx="1214.2" cy="418.08" r="45.8"/>
	<circle class="st0" cx="1183.06" cy="336.87" r="30.53"/>
	<circle class="st1" cx="1200.16" cy="460.22" r="47.63"/>
	<circle class="st0" cx="1195.27" cy="373.51" r="37.86"/>
	<circle class="st1" cx="1107.96" cy="496.24" r="32.36"/>
</g>
</svg>
