<?xml version="1.0" encoding="utf-8"?>
<!-- Generator: Adobe Illustrator 23.0.2, SVG Export Plug-In . SVG Version: 6.00 Build 0)  -->
<svg version="1.1" xmlns="http://www.w3.org/2000/svg" xmlns:xlink="http://www.w3.org/1999/xlink" x="0px" y="0px"
	 viewBox="0 0 1280 1024" style="enable-background:new 0 0 1280 1024;" xml:space="preserve">
<style type="text/css">
	.st0{fill:none;}
	.st1{fill:#EFEFEF;}
	.st2{display:none;}
	.st3{display:inline;fill:#EFEFEF;}
	.st4{display:inline;fill:url(#clouds);}
	.st5{fill:url(#clouds);}
</style>
<pattern  width="1256" height="1656" patternUnits="userSpaceOnUse" id="clouds" viewBox="148 -1813 1256 1656" style="overflow:visible;">
	<g>
		<rect x="148" y="-1813" class="st0" width="1256" height="1656"/>
		<g>
			<circle class="st1" cx="1334.07" cy="-163.54" r="61.67"/>
			<circle class="st1" cx="1425.66" cy="-173.31" r="73.88"/>
			<circle class="st1" cx="1352.5" cy="-246.5" r="48.5"/>
			<circle class="st1" cx="1259.5" cy="-152.5" r="49.5"/>
			<circle class="st1" cx="1287" cy="-236" r="55"/>
			<circle class="st1" cx="1407.5" cy="-253.5" r="49.5"/>
			<circle class="st1" cx="1109.5" cy="-272.5" r="32.5"/>
			<circle class="st1" cx="1223.5" cy="-241.5" r="49.5"/>
			<circle class="st1" cx="1151" cy="-250" r="56"/>
			<circle class="st1" cx="1083.5" cy="-297.5" r="28.5"/>
			<circle class="st1" cx="1190" cy="-107" r="106"/>
			<circle class="st1" cx="982.96" cy="-121.41" r="52.51"/>
			<circle class="st1" cx="1046.47" cy="-164.15" r="50.07"/>
			<circle class="st1" cx="1045.25" cy="-232.54" r="51.29"/>
			<circle class="st1" cx="1004.33" cy="-268.57" r="53.12"/>
			<circle class="st1" cx="953.65" cy="-250.86" r="59.84"/>
			<circle class="st1" cx="894.42" cy="-283.22" r="45.8"/>
			<circle class="st1" cx="956.1" cy="-193.46" r="61.06"/>
			<circle class="st1" cx="930.37" cy="-124.83" r="49.46"/>
			<circle class="st1" cx="870.61" cy="-143.39" r="46.41"/>
			<circle class="st1" cx="859.62" cy="-202.01" r="52.51"/>
			<circle class="st1" cx="851.68" cy="-252.69" r="50.68"/>
			<circle class="st1" cx="956.5" cy="-280.5" r="53.5"/>
			<circle class="st1" cx="823" cy="-156" r="37"/>
			<circle class="st1" cx="818" cy="-209" r="42"/>
			<circle class="st1" cx="1094.5" cy="-167.5" r="44.5"/>
			<circle class="st1" cx="1086.5" cy="-209.5" r="36.5"/>
			<circle class="st1" cx="1045" cy="-270" r="45"/>
			<circle class="st1" cx="1012.5" cy="-281.5" r="51.5"/>
			<circle class="st1" cx="1093.5" cy="-240.5" r="36.5"/>
		</g>
		<g>
			<circle class="st1" cx="169.66" cy="-173.31" r="73.88"/>
			<circle class="st1" cx="227.67" cy="-128.74" r="75.72"/>
			<circle class="st1" cx="280.18" cy="-112.86" r="65.95"/>
			<circle class="st1" cx="151.5" cy="-253.5" r="49.5"/>
			<circle class="st1" cx="206.5" cy="-230.5" r="56.5"/>
			<circle class="st1" cx="264" cy="-222" r="63"/>
			<circle class="st1" cx="332" cy="-181" r="52"/>
			<circle class="st1" cx="541.52" cy="-177.59" r="50.07"/>
			<circle class="st1" cx="578.77" cy="-146.45" r="51.9"/>
			<circle class="st1" cx="521.37" cy="-114.69" r="50.68"/>
			<circle class="st1" cx="601.97" cy="-214.84" r="45.8"/>
			<circle class="st1" cx="648.99" cy="-184.92" r="57.4"/>
			<circle class="st1" cx="730.2" cy="-115.92" r="45.8"/>
			<circle class="st1" cx="699.06" cy="-197.13" r="30.53"/>
			<circle class="st1" cx="711.27" cy="-160.49" r="37.86"/>
			<circle class="st1" cx="478.5" cy="-179.5" r="42.5"/>
			<circle class="st1" cx="492.5" cy="-144.5" r="49.5"/>
			<circle class="st1" cx="516" cy="-225" r="51"/>
			<circle class="st1" cx="567.5" cy="-244.5" r="42.5"/>
			<circle class="st1" cx="626.5" cy="-235.5" r="63.5"/>
			<circle class="st1" cx="675.5" cy="-211.5" r="51.5"/>
			<circle class="st1" cx="725.5" cy="-182.5" r="50.5"/>
			<circle class="st1" cx="456" cy="-138" r="43"/>
			<ellipse class="st1" cx="417" cy="-181" rx="47" ry="44"/>
			<ellipse class="st1" cx="388.5" cy="-236.5" rx="42.5" ry="39.5"/>
			<ellipse class="st1" cx="459.5" cy="-241" rx="42.5" ry="38"/>
			<ellipse class="st1" cx="329" cy="-248.5" rx="41" ry="34.5"/>
			<circle class="st1" cx="399" cy="-85" r="85"/>
			<circle class="st1" cx="748" cy="-251" r="58"/>
			<circle class="st1" cx="776.5" cy="-168.5" r="55.5"/>
			<circle class="st1" cx="816.5" cy="-282.5" r="43.5"/>
			<circle class="st1" cx="680.5" cy="-271.5" r="35.5"/>
			<circle class="st1" cx="411.5" cy="-255.5" r="27.5"/>
		</g>
		<g>
			<circle class="st1" cx="1020.07" cy="-577.54" r="61.67"/>
			<circle class="st1" cx="1111.66" cy="-587.31" r="73.88"/>
			<circle class="st1" cx="1169.67" cy="-542.74" r="75.72"/>
			<circle class="st1" cx="1222.18" cy="-526.86" r="65.95"/>
			<circle class="st1" cx="1054.26" cy="-482.29" r="69"/>
			<circle class="st1" cx="1120.21" cy="-468.85" r="65.34"/>
			<circle class="st1" cx="992.59" cy="-517.09" r="51.29"/>
			<circle class="st1" cx="1164.78" cy="-456.03" r="57.4"/>
			<circle class="st1" cx="1211.8" cy="-457.86" r="44.57"/>
			<circle class="st1" cx="1038.5" cy="-660.5" r="48.5"/>
			<circle class="st1" cx="945.5" cy="-566.5" r="49.5"/>
			<circle class="st1" cx="973" cy="-650" r="55"/>
			<circle class="st1" cx="946.5" cy="-507.5" r="50.5"/>
			<circle class="st1" cx="991" cy="-464" r="64"/>
			<circle class="st1" cx="1258.5" cy="-459.5" r="42.5"/>
			<circle class="st1" cx="1093.5" cy="-667.5" r="49.5"/>
			<circle class="st1" cx="1148.5" cy="-644.5" r="56.5"/>
			<circle class="st1" cx="1206" cy="-636" r="63"/>
			<circle class="st1" cx="1274" cy="-595" r="52"/>
			<circle class="st1" cx="1280" cy="-513" r="50"/>
			<circle class="st1" cx="805" cy="-505" r="44"/>
			<circle class="st1" cx="795.5" cy="-686.5" r="32.5"/>
			<circle class="st1" cx="909.5" cy="-655.5" r="49.5"/>
			<circle class="st1" cx="837" cy="-664" r="56"/>
			<circle class="st1" cx="769.5" cy="-711.5" r="28.5"/>
			<circle class="st1" cx="876" cy="-521" r="106"/>
			<circle class="st1" cx="789" cy="-455" r="39"/>
			<circle class="st1" cx="932.5" cy="-457.5" r="55.5"/>
			<circle class="st1" cx="668.96" cy="-535.41" r="52.51"/>
			<circle class="st1" cx="732.47" cy="-578.15" r="50.07"/>
			<circle class="st1" cx="731.25" cy="-646.54" r="51.29"/>
			<circle class="st1" cx="690.33" cy="-682.57" r="53.12"/>
			<circle class="st1" cx="639.65" cy="-664.86" r="59.84"/>
			<circle class="st1" cx="580.42" cy="-697.22" r="45.8"/>
			<circle class="st1" cx="642.1" cy="-607.46" r="61.06"/>
			<circle class="st1" cx="616.37" cy="-538.83" r="49.46"/>
			<circle class="st1" cx="556.61" cy="-557.39" r="46.41"/>
			<circle class="st1" cx="545.62" cy="-616.01" r="52.51"/>
			<circle class="st1" cx="537.68" cy="-666.69" r="50.68"/>
			<circle class="st1" cx="642.5" cy="-694.5" r="53.5"/>
			<circle class="st1" cx="714.5" cy="-485.5" r="48.5"/>
			<circle class="st1" cx="664.5" cy="-499.5" r="55.5"/>
			<circle class="st1" cx="509" cy="-570" r="37"/>
			<circle class="st1" cx="525" cy="-524" r="46"/>
			<circle class="st1" cx="578" cy="-494" r="49"/>
			<circle class="st1" cx="504" cy="-623" r="42"/>
			<circle class="st1" cx="764.5" cy="-518.5" r="44.5"/>
			<circle class="st1" cx="780.5" cy="-581.5" r="44.5"/>
			<circle class="st1" cx="772.5" cy="-623.5" r="36.5"/>
			<circle class="st1" cx="731" cy="-684" r="45"/>
			<circle class="st1" cx="698.5" cy="-695.5" r="51.5"/>
			<circle class="st1" cx="779.5" cy="-654.5" r="36.5"/>
			<circle class="st1" cx="1420.5" cy="-593.5" r="42.5"/>
			<circle class="st1" cx="1434.5" cy="-558.5" r="49.5"/>
			<circle class="st1" cx="1448.5" cy="-490.5" r="60.5"/>
			<circle class="st1" cx="1407" cy="-510" r="41"/>
			<circle class="st1" cx="1398" cy="-552" r="43"/>
			<circle class="st1" cx="1428.5" cy="-465.5" r="55.5"/>
			<ellipse class="st1" cx="1359" cy="-595" rx="47" ry="44"/>
			<ellipse class="st1" cx="1330.5" cy="-650.5" rx="42.5" ry="39.5"/>
			<ellipse class="st1" cx="1401.5" cy="-655" rx="42.5" ry="38"/>
			<ellipse class="st1" cx="1271" cy="-662.5" rx="41" ry="34.5"/>
			<circle class="st1" cx="1341" cy="-499" r="85"/>
			<circle class="st1" cx="1353.5" cy="-669.5" r="27.5"/>
			<circle class="st1" cx="525" cy="-486" r="38"/>
			<circle class="st1" cx="747" cy="-453" r="33"/>
			<circle class="st1" cx="615.5" cy="-468.5" r="28.5"/>
		</g>
		<g>
			<circle class="st1" cx="227.52" cy="-591.59" r="50.07"/>
			<circle class="st1" cx="264.77" cy="-560.45" r="51.9"/>
			<circle class="st1" cx="349.65" cy="-500" r="63.5"/>
			<circle class="st1" cx="253.17" cy="-492.78" r="68.39"/>
			<circle class="st1" cx="207.37" cy="-528.69" r="50.68"/>
			<circle class="st1" cx="287.97" cy="-628.84" r="45.8"/>
			<circle class="st1" cx="334.99" cy="-598.92" r="57.4"/>
			<circle class="st1" cx="416.2" cy="-529.92" r="45.8"/>
			<circle class="st1" cx="385.06" cy="-611.13" r="30.53"/>
			<circle class="st1" cx="402.16" cy="-487.78" r="47.63"/>
			<circle class="st1" cx="397.27" cy="-574.49" r="37.86"/>
			<circle class="st1" cx="309.96" cy="-451.76" r="32.36"/>
			<circle class="st1" cx="164.5" cy="-593.5" r="42.5"/>
			<circle class="st1" cx="178.5" cy="-558.5" r="49.5"/>
			<circle class="st1" cx="192.5" cy="-490.5" r="60.5"/>
			<circle class="st1" cx="215" cy="-457" r="57"/>
			<circle class="st1" cx="290" cy="-457" r="57"/>
			<circle class="st1" cx="342.5" cy="-454.5" r="52.5"/>
			<circle class="st1" cx="202" cy="-639" r="51"/>
			<circle class="st1" cx="253.5" cy="-658.5" r="42.5"/>
			<circle class="st1" cx="312.5" cy="-649.5" r="63.5"/>
			<circle class="st1" cx="361.5" cy="-625.5" r="51.5"/>
			<circle class="st1" cx="411.5" cy="-596.5" r="50.5"/>
			<circle class="st1" cx="400.5" cy="-438.5" r="39.5"/>
			<circle class="st1" cx="238" cy="-431" r="31"/>
			<circle class="st1" cx="151" cy="-510" r="41"/>
			<circle class="st1" cx="142" cy="-552" r="43"/>
			<circle class="st1" cx="172.5" cy="-465.5" r="55.5"/>
			<ellipse class="st1" cx="103" cy="-595" rx="47" ry="44"/>
			<ellipse class="st1" cx="145.5" cy="-655" rx="42.5" ry="38"/>
			<circle class="st1" cx="85" cy="-499" r="85"/>
			<circle class="st1" cx="434" cy="-665" r="58"/>
			<circle class="st1" cx="481.5" cy="-484.5" r="54.5"/>
			<circle class="st1" cx="462.5" cy="-582.5" r="55.5"/>
			<circle class="st1" cx="502.5" cy="-696.5" r="43.5"/>
			<circle class="st1" cx="366.5" cy="-685.5" r="35.5"/>
			<circle class="st1" cx="435.5" cy="-448.5" r="33.5"/>
		</g>
		<g>
			<circle class="st1" cx="706.07" cy="-991.54" r="61.67"/>
			<circle class="st1" cx="797.66" cy="-1001.31" r="73.88"/>
			<circle class="st1" cx="855.67" cy="-956.74" r="75.72"/>
			<circle class="st1" cx="908.18" cy="-940.86" r="65.95"/>
			<circle class="st1" cx="740.26" cy="-896.29" r="69"/>
			<circle class="st1" cx="806.21" cy="-882.85" r="65.34"/>
			<circle class="st1" cx="678.59" cy="-931.09" r="51.29"/>
			<circle class="st1" cx="850.78" cy="-870.03" r="57.4"/>
			<circle class="st1" cx="897.8" cy="-871.86" r="44.57"/>
			<circle class="st1" cx="724.5" cy="-1074.5" r="48.5"/>
			<circle class="st1" cx="631.5" cy="-980.5" r="49.5"/>
			<circle class="st1" cx="659" cy="-1064" r="55"/>
			<circle class="st1" cx="632.5" cy="-921.5" r="50.5"/>
			<circle class="st1" cx="677" cy="-878" r="64"/>
			<circle class="st1" cx="944.5" cy="-873.5" r="42.5"/>
			<circle class="st1" cx="779.5" cy="-1081.5" r="49.5"/>
			<circle class="st1" cx="834.5" cy="-1058.5" r="56.5"/>
			<circle class="st1" cx="892" cy="-1050" r="63"/>
			<circle class="st1" cx="960" cy="-1009" r="52"/>
			<circle class="st1" cx="966" cy="-927" r="50"/>
			<circle class="st1" cx="491" cy="-919" r="44"/>
			<circle class="st1" cx="481.5" cy="-1100.5" r="32.5"/>
			<circle class="st1" cx="595.5" cy="-1069.5" r="49.5"/>
			<circle class="st1" cx="523" cy="-1078" r="56"/>
			<circle class="st1" cx="455.5" cy="-1125.5" r="28.5"/>
			<circle class="st1" cx="562" cy="-935" r="106"/>
			<circle class="st1" cx="475" cy="-869" r="39"/>
			<circle class="st1" cx="618.5" cy="-871.5" r="55.5"/>
			<circle class="st1" cx="354.96" cy="-949.41" r="52.51"/>
			<circle class="st1" cx="418.47" cy="-992.15" r="50.07"/>
			<circle class="st1" cx="417.25" cy="-1060.54" r="51.29"/>
			<circle class="st1" cx="376.33" cy="-1096.57" r="53.12"/>
			<circle class="st1" cx="325.65" cy="-1078.86" r="59.84"/>
			<circle class="st1" cx="266.42" cy="-1111.22" r="45.8"/>
			<circle class="st1" cx="328.1" cy="-1021.46" r="61.06"/>
			<circle class="st1" cx="302.37" cy="-952.83" r="49.46"/>
			<circle class="st1" cx="242.61" cy="-971.39" r="46.41"/>
			<circle class="st1" cx="231.62" cy="-1030.01" r="52.51"/>
			<circle class="st1" cx="223.68" cy="-1080.69" r="50.68"/>
			<circle class="st1" cx="328.5" cy="-1108.5" r="53.5"/>
			<circle class="st1" cx="400.5" cy="-899.5" r="48.5"/>
			<circle class="st1" cx="350.5" cy="-913.5" r="55.5"/>
			<circle class="st1" cx="195" cy="-984" r="37"/>
			<circle class="st1" cx="211" cy="-938" r="46"/>
			<circle class="st1" cx="264" cy="-908" r="49"/>
			<circle class="st1" cx="190" cy="-1037" r="42"/>
			<circle class="st1" cx="450.5" cy="-932.5" r="44.5"/>
			<circle class="st1" cx="466.5" cy="-995.5" r="44.5"/>
			<circle class="st1" cx="458.5" cy="-1037.5" r="36.5"/>
			<circle class="st1" cx="417" cy="-1098" r="45"/>
			<circle class="st1" cx="384.5" cy="-1109.5" r="51.5"/>
			<circle class="st1" cx="465.5" cy="-1068.5" r="36.5"/>
			<circle class="st1" cx="1169.52" cy="-1005.59" r="50.07"/>
			<circle class="st1" cx="1206.77" cy="-974.45" r="51.9"/>
			<circle class="st1" cx="1291.65" cy="-914" r="63.5"/>
			<circle class="st1" cx="1195.17" cy="-906.78" r="68.39"/>
			<circle class="st1" cx="1149.37" cy="-942.69" r="50.68"/>
			<circle class="st1" cx="1229.97" cy="-1042.84" r="45.8"/>
			<circle class="st1" cx="1276.99" cy="-1012.92" r="57.4"/>
			<circle class="st1" cx="1358.2" cy="-943.92" r="45.8"/>
			<circle class="st1" cx="1327.06" cy="-1025.13" r="30.53"/>
			<circle class="st1" cx="1344.16" cy="-901.78" r="47.63"/>
			<circle class="st1" cx="1339.27" cy="-988.49" r="37.86"/>
			<circle class="st1" cx="1251.96" cy="-865.76" r="32.36"/>
			<circle class="st1" cx="1106.5" cy="-1007.5" r="42.5"/>
			<circle class="st1" cx="1120.5" cy="-972.5" r="49.5"/>
			<circle class="st1" cx="1134.5" cy="-904.5" r="60.5"/>
			<circle class="st1" cx="1157" cy="-871" r="57"/>
			<circle class="st1" cx="1232" cy="-871" r="57"/>
			<circle class="st1" cx="1284.5" cy="-868.5" r="52.5"/>
			<circle class="st1" cx="1144" cy="-1053" r="51"/>
			<circle class="st1" cx="1195.5" cy="-1072.5" r="42.5"/>
			<circle class="st1" cx="1254.5" cy="-1063.5" r="63.5"/>
			<circle class="st1" cx="1303.5" cy="-1039.5" r="51.5"/>
			<circle class="st1" cx="1353.5" cy="-1010.5" r="50.5"/>
			<circle class="st1" cx="1342.5" cy="-852.5" r="39.5"/>
			<circle class="st1" cx="1180" cy="-845" r="31"/>
			<circle class="st1" cx="1093" cy="-924" r="41"/>
			<circle class="st1" cx="1084" cy="-966" r="43"/>
			<circle class="st1" cx="1114.5" cy="-879.5" r="55.5"/>
			<ellipse class="st1" cx="1045" cy="-1009" rx="47" ry="44"/>
			<ellipse class="st1" cx="1016.5" cy="-1064.5" rx="42.5" ry="39.5"/>
			<ellipse class="st1" cx="1087.5" cy="-1069" rx="42.5" ry="38"/>
			<ellipse class="st1" cx="957" cy="-1076.5" rx="41" ry="34.5"/>
			<circle class="st1" cx="1027" cy="-913" r="85"/>
			<circle class="st1" cx="1376" cy="-1079" r="58"/>
			<circle class="st1" cx="1423.5" cy="-898.5" r="54.5"/>
			<circle class="st1" cx="1404.5" cy="-996.5" r="55.5"/>
			<circle class="st1" cx="1444.5" cy="-1110.5" r="43.5"/>
			<circle class="st1" cx="1308.5" cy="-1099.5" r="35.5"/>
			<circle class="st1" cx="1039.5" cy="-1083.5" r="27.5"/>
			<circle class="st1" cx="211" cy="-900" r="38"/>
			<circle class="st1" cx="1377.5" cy="-862.5" r="33.5"/>
			<circle class="st1" cx="433" cy="-867" r="33"/>
			<circle class="st1" cx="301.5" cy="-882.5" r="28.5"/>
		</g>
		<g>
			<circle class="st1" cx="120" cy="-1079" r="58"/>
			<circle class="st1" cx="167.5" cy="-898.5" r="54.5"/>
			<circle class="st1" cx="148.5" cy="-996.5" r="55.5"/>
			<circle class="st1" cx="188.5" cy="-1110.5" r="43.5"/>
			<circle class="st1" cx="121.5" cy="-862.5" r="33.5"/>
		</g>
		<g>
			<circle class="st1" cx="1433" cy="-1333" r="44"/>
			<circle class="st1" cx="1423.5" cy="-1514.5" r="32.5"/>
			<circle class="st1" cx="1397.5" cy="-1539.5" r="28.5"/>
			<circle class="st1" cx="1504" cy="-1349" r="106"/>
			<circle class="st1" cx="1417" cy="-1283" r="39"/>
			<circle class="st1" cx="1296.96" cy="-1363.41" r="52.51"/>
			<circle class="st1" cx="1360.47" cy="-1406.15" r="50.07"/>
			<circle class="st1" cx="1359.25" cy="-1474.54" r="51.29"/>
			<circle class="st1" cx="1318.33" cy="-1510.57" r="53.12"/>
			<circle class="st1" cx="1267.65" cy="-1492.86" r="59.84"/>
			<circle class="st1" cx="1208.42" cy="-1525.22" r="45.8"/>
			<circle class="st1" cx="1270.1" cy="-1435.46" r="61.06"/>
			<circle class="st1" cx="1244.37" cy="-1366.83" r="49.46"/>
			<circle class="st1" cx="1184.61" cy="-1385.39" r="46.41"/>
			<circle class="st1" cx="1173.62" cy="-1444.01" r="52.51"/>
			<circle class="st1" cx="1165.68" cy="-1494.69" r="50.68"/>
			<circle class="st1" cx="1270.5" cy="-1522.5" r="53.5"/>
			<circle class="st1" cx="1342.5" cy="-1313.5" r="48.5"/>
			<circle class="st1" cx="1292.5" cy="-1327.5" r="55.5"/>
			<circle class="st1" cx="1137" cy="-1398" r="37"/>
			<circle class="st1" cx="1153" cy="-1352" r="46"/>
			<circle class="st1" cx="1206" cy="-1322" r="49"/>
			<circle class="st1" cx="1132" cy="-1451" r="42"/>
			<circle class="st1" cx="1392.5" cy="-1346.5" r="44.5"/>
			<circle class="st1" cx="1408.5" cy="-1409.5" r="44.5"/>
			<circle class="st1" cx="1400.5" cy="-1451.5" r="36.5"/>
			<circle class="st1" cx="1359" cy="-1512" r="45"/>
			<circle class="st1" cx="1326.5" cy="-1523.5" r="51.5"/>
			<circle class="st1" cx="1407.5" cy="-1482.5" r="36.5"/>
			<circle class="st1" cx="1153" cy="-1314" r="38"/>
			<circle class="st1" cx="1375" cy="-1281" r="33"/>
			<circle class="st1" cx="1243.5" cy="-1296.5" r="28.5"/>
		</g>
		<g>
			<circle class="st1" cx="392.07" cy="-1405.54" r="61.67"/>
			<circle class="st1" cx="483.66" cy="-1415.31" r="73.88"/>
			<circle class="st1" cx="541.67" cy="-1370.74" r="75.72"/>
			<circle class="st1" cx="594.18" cy="-1354.86" r="65.95"/>
			<circle class="st1" cx="426.26" cy="-1310.29" r="69"/>
			<circle class="st1" cx="492.21" cy="-1296.85" r="65.34"/>
			<circle class="st1" cx="364.59" cy="-1345.09" r="51.29"/>
			<circle class="st1" cx="536.78" cy="-1284.03" r="57.4"/>
			<circle class="st1" cx="583.8" cy="-1285.86" r="44.57"/>
			<circle class="st1" cx="410.5" cy="-1488.5" r="48.5"/>
			<circle class="st1" cx="317.5" cy="-1394.5" r="49.5"/>
			<circle class="st1" cx="345" cy="-1478" r="55"/>
			<circle class="st1" cx="318.5" cy="-1335.5" r="50.5"/>
			<circle class="st1" cx="363" cy="-1292" r="64"/>
			<circle class="st1" cx="630.5" cy="-1287.5" r="42.5"/>
			<circle class="st1" cx="465.5" cy="-1495.5" r="49.5"/>
			<circle class="st1" cx="520.5" cy="-1472.5" r="56.5"/>
			<circle class="st1" cx="578" cy="-1464" r="63"/>
			<circle class="st1" cx="646" cy="-1423" r="52"/>
			<circle class="st1" cx="652" cy="-1341" r="50"/>
			<circle class="st1" cx="177" cy="-1333" r="44"/>
			<circle class="st1" cx="167.5" cy="-1514.5" r="32.5"/>
			<circle class="st1" cx="281.5" cy="-1483.5" r="49.5"/>
			<circle class="st1" cx="209" cy="-1492" r="56"/>
			<circle class="st1" cx="141.5" cy="-1539.5" r="28.5"/>
			<circle class="st1" cx="248" cy="-1349" r="106"/>
			<circle class="st1" cx="161" cy="-1283" r="39"/>
			<circle class="st1" cx="304.5" cy="-1285.5" r="55.5"/>
			<circle class="st1" cx="104.47" cy="-1406.15" r="50.07"/>
			<circle class="st1" cx="103.25" cy="-1474.54" r="51.29"/>
			<circle class="st1" cx="136.5" cy="-1346.5" r="44.5"/>
			<circle class="st1" cx="152.5" cy="-1409.5" r="44.5"/>
			<circle class="st1" cx="144.5" cy="-1451.5" r="36.5"/>
			<circle class="st1" cx="151.5" cy="-1482.5" r="36.5"/>
			<circle class="st1" cx="855.52" cy="-1419.59" r="50.07"/>
			<circle class="st1" cx="892.77" cy="-1388.45" r="51.9"/>
			<circle class="st1" cx="977.65" cy="-1328" r="63.5"/>
			<circle class="st1" cx="881.17" cy="-1320.78" r="68.39"/>
			<circle class="st1" cx="835.37" cy="-1356.69" r="50.68"/>
			<circle class="st1" cx="915.97" cy="-1456.84" r="45.8"/>
			<circle class="st1" cx="962.99" cy="-1426.92" r="57.4"/>
			<circle class="st1" cx="1044.2" cy="-1357.92" r="45.8"/>
			<circle class="st1" cx="1013.06" cy="-1439.13" r="30.53"/>
			<circle class="st1" cx="1030.16" cy="-1315.78" r="47.63"/>
			<circle class="st1" cx="1025.27" cy="-1402.49" r="37.86"/>
			<circle class="st1" cx="937.96" cy="-1279.76" r="32.36"/>
			<circle class="st1" cx="792.5" cy="-1421.5" r="42.5"/>
			<circle class="st1" cx="806.5" cy="-1386.5" r="49.5"/>
			<circle class="st1" cx="820.5" cy="-1318.5" r="60.5"/>
			<circle class="st1" cx="843" cy="-1285" r="57"/>
			<circle class="st1" cx="918" cy="-1285" r="57"/>
			<circle class="st1" cx="970.5" cy="-1282.5" r="52.5"/>
			<circle class="st1" cx="830" cy="-1467" r="51"/>
			<circle class="st1" cx="881.5" cy="-1486.5" r="42.5"/>
			<circle class="st1" cx="940.5" cy="-1477.5" r="63.5"/>
			<circle class="st1" cx="989.5" cy="-1453.5" r="51.5"/>
			<circle class="st1" cx="1039.5" cy="-1424.5" r="50.5"/>
			<circle class="st1" cx="1028.5" cy="-1266.5" r="39.5"/>
			<circle class="st1" cx="866" cy="-1259" r="31"/>
			<circle class="st1" cx="779" cy="-1338" r="41"/>
			<circle class="st1" cx="770" cy="-1380" r="43"/>
			<circle class="st1" cx="800.5" cy="-1293.5" r="55.5"/>
			<ellipse class="st1" cx="731" cy="-1423" rx="47" ry="44"/>
			<ellipse class="st1" cx="702.5" cy="-1478.5" rx="42.5" ry="39.5"/>
			<ellipse class="st1" cx="773.5" cy="-1483" rx="42.5" ry="38"/>
			<ellipse class="st1" cx="643" cy="-1490.5" rx="41" ry="34.5"/>
			<circle class="st1" cx="713" cy="-1327" r="85"/>
			<circle class="st1" cx="1062" cy="-1493" r="58"/>
			<circle class="st1" cx="1109.5" cy="-1312.5" r="54.5"/>
			<circle class="st1" cx="1090.5" cy="-1410.5" r="55.5"/>
			<circle class="st1" cx="1130.5" cy="-1524.5" r="43.5"/>
			<circle class="st1" cx="994.5" cy="-1513.5" r="35.5"/>
			<circle class="st1" cx="725.5" cy="-1497.5" r="27.5"/>
			<circle class="st1" cx="1063.5" cy="-1276.5" r="33.5"/>
			<circle class="st1" cx="119" cy="-1281" r="33"/>
		</g>
		<g>
			<circle class="st1" cx="1334.07" cy="-1819.54" r="61.67"/>
			<circle class="st1" cx="1425.66" cy="-1829.31" r="73.88"/>
			<circle class="st1" cx="1368.26" cy="-1724.29" r="69"/>
			<circle class="st1" cx="1434.21" cy="-1710.85" r="65.34"/>
			<circle class="st1" cx="1306.59" cy="-1759.09" r="51.29"/>
			<circle class="st1" cx="1259.5" cy="-1808.5" r="49.5"/>
			<circle class="st1" cx="1260.5" cy="-1749.5" r="50.5"/>
			<circle class="st1" cx="1305" cy="-1706" r="64"/>
			<circle class="st1" cx="1119" cy="-1747" r="44"/>
			<circle class="st1" cx="1190" cy="-1763" r="106"/>
			<circle class="st1" cx="1103" cy="-1697" r="39"/>
			<circle class="st1" cx="1246.5" cy="-1699.5" r="55.5"/>
			<circle class="st1" cx="982.96" cy="-1777.41" r="52.51"/>
			<circle class="st1" cx="1046.47" cy="-1820.15" r="50.07"/>
			<circle class="st1" cx="956.1" cy="-1849.46" r="61.06"/>
			<circle class="st1" cx="930.37" cy="-1780.83" r="49.46"/>
			<circle class="st1" cx="870.61" cy="-1799.39" r="46.41"/>
			<circle class="st1" cx="859.62" cy="-1858.01" r="52.51"/>
			<circle class="st1" cx="1028.5" cy="-1727.5" r="48.5"/>
			<circle class="st1" cx="978.5" cy="-1741.5" r="55.5"/>
			<circle class="st1" cx="823" cy="-1812" r="37"/>
			<circle class="st1" cx="839" cy="-1766" r="46"/>
			<circle class="st1" cx="892" cy="-1736" r="49"/>
			<circle class="st1" cx="1078.5" cy="-1760.5" r="44.5"/>
			<circle class="st1" cx="1094.5" cy="-1823.5" r="44.5"/>
			<circle class="st1" cx="839" cy="-1728" r="38"/>
			<circle class="st1" cx="1061" cy="-1695" r="33"/>
			<circle class="st1" cx="929.5" cy="-1710.5" r="28.5"/>
		</g>
		<g>
			<circle class="st1" cx="169.66" cy="-1829.31" r="73.88"/>
			<circle class="st1" cx="227.67" cy="-1784.74" r="75.72"/>
			<circle class="st1" cx="280.18" cy="-1768.86" r="65.95"/>
			<circle class="st1" cx="112.26" cy="-1724.29" r="69"/>
			<circle class="st1" cx="178.21" cy="-1710.85" r="65.34"/>
			<circle class="st1" cx="222.78" cy="-1698.03" r="57.4"/>
			<circle class="st1" cx="269.8" cy="-1699.86" r="44.57"/>
			<circle class="st1" cx="316.5" cy="-1701.5" r="42.5"/>
			<circle class="st1" cx="332" cy="-1837" r="52"/>
			<circle class="st1" cx="338" cy="-1755" r="50"/>
			<circle class="st1" cx="541.52" cy="-1833.59" r="50.07"/>
			<circle class="st1" cx="578.77" cy="-1802.45" r="51.9"/>
			<circle class="st1" cx="663.65" cy="-1742" r="63.5"/>
			<circle class="st1" cx="567.17" cy="-1734.78" r="68.39"/>
			<circle class="st1" cx="521.37" cy="-1770.69" r="50.68"/>
			<circle class="st1" cx="648.99" cy="-1840.92" r="57.4"/>
			<circle class="st1" cx="730.2" cy="-1771.92" r="45.8"/>
			<circle class="st1" cx="716.16" cy="-1729.78" r="47.63"/>
			<circle class="st1" cx="711.27" cy="-1816.49" r="37.86"/>
			<circle class="st1" cx="623.96" cy="-1693.76" r="32.36"/>
			<circle class="st1" cx="478.5" cy="-1835.5" r="42.5"/>
			<circle class="st1" cx="492.5" cy="-1800.5" r="49.5"/>
			<circle class="st1" cx="506.5" cy="-1732.5" r="60.5"/>
			<circle class="st1" cx="529" cy="-1699" r="57"/>
			<circle class="st1" cx="604" cy="-1699" r="57"/>
			<circle class="st1" cx="656.5" cy="-1696.5" r="52.5"/>
			<circle class="st1" cx="725.5" cy="-1838.5" r="50.5"/>
			<circle class="st1" cx="714.5" cy="-1680.5" r="39.5"/>
			<circle class="st1" cx="552" cy="-1673" r="31"/>
			<circle class="st1" cx="465" cy="-1752" r="41"/>
			<circle class="st1" cx="456" cy="-1794" r="43"/>
			<circle class="st1" cx="486.5" cy="-1707.5" r="55.5"/>
			<ellipse class="st1" cx="417" cy="-1837" rx="47" ry="44"/>
			<circle class="st1" cx="399" cy="-1741" r="85"/>
			<circle class="st1" cx="795.5" cy="-1726.5" r="54.5"/>
			<circle class="st1" cx="776.5" cy="-1824.5" r="55.5"/>
			<circle class="st1" cx="749.5" cy="-1690.5" r="33.5"/>
		</g>
	</g>
</pattern>
<g id="Layer_1" class="st2">
	<circle class="st3" cx="562.07" cy="370.46" r="61.67"/>
	<circle class="st3" cx="653.66" cy="360.69" r="73.88"/>
	<circle class="st3" cx="711.67" cy="405.26" r="75.72"/>
	<circle class="st3" cx="764.18" cy="421.14" r="65.95"/>
	<circle class="st3" cx="596.26" cy="465.71" r="69"/>
	<circle class="st3" cx="662.21" cy="479.15" r="65.34"/>
	<circle class="st3" cx="534.59" cy="430.91" r="51.29"/>
	<circle class="st3" cx="706.78" cy="491.97" r="57.4"/>
	<circle class="st3" cx="753.8" cy="490.14" r="44.57"/>
	<circle class="st3" cx="580.5" cy="287.5" r="48.5"/>
	<circle class="st3" cx="487.5" cy="381.5" r="49.5"/>
	<circle class="st4" cx="515" cy="306" r="55"/>
	<circle class="st3" cx="488.5" cy="440.5" r="50.5"/>
	<circle class="st3" cx="533" cy="492" r="64"/>
	<circle class="st3" cx="800.5" cy="488.5" r="42.5"/>
	<circle class="st3" cx="635.5" cy="280.5" r="49.5"/>
	<circle class="st3" cx="690.5" cy="305.5" r="56.5"/>
	<circle class="st3" cx="745" cy="334" r="63"/>
	<circle class="st3" cx="816" cy="353" r="52"/>
	<circle class="st3" cx="822" cy="435" r="50"/>
	<circle class="st3" cx="347" cy="443" r="44"/>
	<circle class="st3" cx="337.5" cy="261.5" r="32.5"/>
	<circle class="st3" cx="451.5" cy="306.5" r="49.5"/>
	<circle class="st3" cx="379" cy="284" r="56"/>
	<circle class="st3" cx="313.5" cy="232.5" r="28.5"/>
	<circle class="st3" cx="421" cy="418" r="106"/>
	<circle class="st3" cx="331" cy="493" r="39"/>
	<circle class="st3" cx="474.5" cy="499.5" r="55.5"/>
</g>
<g id="Layer_2" class="st2">
	<circle class="st3" cx="210.96" cy="412.59" r="52.51"/>
	<circle class="st3" cx="274.47" cy="369.85" r="50.07"/>
	<circle class="st3" cx="273.25" cy="301.46" r="51.29"/>
	<circle class="st3" cx="232.33" cy="265.43" r="53.12"/>
	<circle class="st3" cx="181.65" cy="283.14" r="59.84"/>
	<circle class="st3" cx="122.42" cy="239.78" r="45.8"/>
	<circle class="st3" cx="184.1" cy="340.54" r="61.06"/>
	<circle class="st3" cx="158.37" cy="409.17" r="49.46"/>
	<circle class="st3" cx="98.61" cy="390.61" r="46.41"/>
	<circle class="st3" cx="87.62" cy="331.99" r="52.51"/>
	<circle class="st3" cx="79.68" cy="281.31" r="50.68"/>
	<circle class="st3" cx="184.5" cy="223.5" r="53.5"/>
	<circle class="st3" cx="262.5" cy="450.5" r="48.5"/>
	<circle class="st3" cx="206.5" cy="443.5" r="55.5"/>
	<circle class="st3" cx="51" cy="378" r="37"/>
	<circle class="st3" cx="67" cy="424" r="46"/>
	<circle class="st3" cx="120" cy="454" r="49"/>
	<circle class="st3" cx="46" cy="325" r="42"/>
	<circle class="st3" cx="306.5" cy="429.5" r="44.5"/>
	<circle class="st3" cx="322.5" cy="366.5" r="44.5"/>
	<circle class="st3" cx="314.5" cy="324.5" r="36.5"/>
	<circle class="st3" cx="273" cy="264" r="45"/>
	<circle class="st3" cx="240.5" cy="221.5" r="51.5"/>
	<circle class="st3" cx="321.5" cy="293.5" r="36.5"/>
</g>
<g id="Layer_3" class="st2">
	<circle class="st3" cx="1025.52" cy="356.41" r="50.07"/>
	<circle class="st3" cx="1062.77" cy="387.55" r="51.9"/>
	<circle class="st3" cx="1147.65" cy="448" r="63.5"/>
	<circle class="st3" cx="1051.17" cy="460.22" r="68.39"/>
	<circle class="st3" cx="1005.37" cy="419.31" r="50.68"/>
	<circle class="st3" cx="1085.97" cy="319.16" r="45.8"/>
	<circle class="st3" cx="1132.99" cy="349.08" r="57.4"/>
	<circle class="st3" cx="1214.2" cy="418.08" r="45.8"/>
	<circle class="st3" cx="1183.06" cy="336.87" r="30.53"/>
	<circle class="st3" cx="1200.16" cy="460.22" r="47.63"/>
	<circle class="st3" cx="1195.27" cy="373.51" r="37.86"/>
	<circle class="st3" cx="1107.96" cy="496.24" r="32.36"/>
	<circle class="st3" cx="962.5" cy="354.5" r="42.5"/>
	<circle class="st3" cx="976.5" cy="389.5" r="49.5"/>
	<circle class="st3" cx="990.5" cy="462.5" r="60.5"/>
	<circle class="st3" cx="1013" cy="496" r="57"/>
	<circle class="st3" cx="1088" cy="527" r="57"/>
	<circle class="st3" cx="1140.5" cy="503.5" r="52.5"/>
	<circle class="st3" cx="1000" cy="309" r="51"/>
	<circle class="st3" cx="1051.5" cy="300.5" r="42.5"/>
	<circle class="st3" cx="1110.5" cy="298.5" r="63.5"/>
	<circle class="st3" cx="1159.5" cy="322.5" r="51.5"/>
	<circle class="st3" cx="1209.5" cy="351.5" r="50.5"/>
	<circle class="st3" cx="1198.5" cy="513.5" r="39.5"/>
	<circle class="st3" cx="1036" cy="549" r="31"/>
	<circle class="st3" cx="949" cy="438" r="41"/>
	<circle class="st3" cx="940" cy="396" r="43"/>
	<circle class="st3" cx="970.5" cy="487.5" r="55.5"/>
	<ellipse class="st3" cx="901" cy="353" rx="47" ry="44"/>
	<ellipse class="st3" cx="872.5" cy="316.5" rx="42.5" ry="39.5"/>
	<ellipse class="st3" cx="943.5" cy="303" rx="42.5" ry="38"/>
	<ellipse class="st3" cx="813" cy="285.5" rx="41" ry="34.5"/>
	<circle class="st3" cx="883" cy="447" r="85"/>
</g>
<g id="Layer_4">
	<rect x="-435" y="176" class="st5" width="1958" height="421"/>
</g>
</svg>
