<?xml version="1.0" encoding="utf-8"?>
<!-- Generator: Adobe Illustrator 23.0.2, SVG Export Plug-In . SVG Version: 6.00 Build 0)  -->
<svg version="1.1" xmlns="http://www.w3.org/2000/svg" xmlns:xlink="http://www.w3.org/1999/xlink" x="0px" y="0px"
	 viewBox="0 0 1280 512" style="enable-background:new 0 0 1280 512;" xml:space="preserve">
<style type="text/css">
	.st0{fill:#AADD6F;}
	.st1{fill:#EAEAEA;}
	.st2{display:none;fill:#EAEAEA;}
	.st3{display:none;}
	.st4{display:inline;}
	.st5{fill:#237F00;}
	.st6{fill:#70592C;}
	.st7{fill:#AF9869;}
	.st8{fill:#937F5C;}
	.st9{fill:#8E7336;}
	.st10{fill:#4F3E20;}
	.st11{fill:#C1E1E5;}
	.st12{fill:#B7B7B7;}
	.st13{fill:#D1D1D1;}
	.st14{fill:#C9C9C9;}
	.st15{fill:#DBDBDB;}
	.st16{fill:#E2E2E2;}
	.st17{fill:#BCBCBC;}
</style>
<g id="ground">
	<g>
		<path class="st0" d="M-77.5,459.5c0,0,153.64-72.79,332-108c233-46,560-62,901,21c172.09,41.89,182,64,182,64l-45,309
			c0,0-1316.51,5.57-1299-10C14.73,716.63-37.53,411.56-77.5,459.5z"/>
	</g>
</g>
<g id="snow_on_ground">
	<path id="light" class="st1" d="M-80.5,454.5c0,0,153.64-72.79,332-108c233-46,560-62,901,21c172.09,41.89,182,64,182,64l-45,309
		c0,0-1316.51,5.57-1299-10C11.73,711.63-40.53,406.56-80.5,454.5z"/>
	<path id="medium" class="st1" d="M-80.5,449.5c0,0,153.64-72.79,332-108c233-46,560-62,901,21c172.09,41.89,182,64,182,64l-45,309
		c0,0-1316.51,5.57-1299-10C11.73,706.63-40.53,401.56-80.5,449.5z"/>
	<path id="heavy" class="st2" d="M-80.5,439.5c0,0,153.64-72.79,332-108c233-46,560-62,901,21c172.09,41.89,182,64,182,64l-45,309
		c0,0-1316.51,5.57-1299-10C11.73,696.63-40.53,391.56-80.5,439.5z"/>
</g>
<g id="plants" class="st3">
	<g class="st4">
		<g>
			<path class="st5" d="M1012,351.08c-0.1-1.81-0.25-3.63-0.64-5.41c-0.33-1.8-0.89-3.55-1.54-5.27c-0.65-1.72-1.5-3.37-2.45-4.96
				c-0.97-1.58-2.06-3.1-3.37-4.43c1.42,1.22,2.66,2.64,3.78,4.16c1.11,1.52,2.13,3.12,2.95,4.83c0.83,1.7,1.57,3.47,2.08,5.31
				c0.57,1.83,0.9,3.72,1.18,5.62L1012,351.08z"/>
		</g>
		<g>
			<path class="st5" d="M1014,349.07c-0.08-1.78-0.2-3.57-0.52-5.33c-0.27-1.77-0.76-3.51-1.31-5.23c-0.57-1.71-1.3-3.37-2.15-4.98
				c-0.86-1.6-1.83-3.15-3.03-4.53c1.32,1.27,2.44,2.74,3.46,4.28c1.01,1.54,1.91,3.17,2.65,4.87c0.72,1.71,1.39,3.45,1.84,5.27
				c0.5,1.8,0.8,3.65,1.05,5.51L1014,349.07z"/>
		</g>
		<g>
			<path class="st5" d="M1011,343.48c0.1-1.17,0.22-2.34,0.4-3.49c0.17-1.16,0.41-2.31,0.68-3.44c0.28-1.13,0.61-2.26,1.01-3.35
				c0.4-1.09,0.84-2.18,1.42-3.19c-0.5,1.05-0.86,2.15-1.18,3.26c-0.31,1.11-0.56,2.24-0.75,3.38c-0.19,1.14-0.33,2.28-0.42,3.43
				c-0.1,1.15-0.13,2.3-0.14,3.45L1011,343.48z"/>
		</g>
		<g>
			<path class="st5" d="M1014,348.48c0.1-1.17,0.22-2.34,0.4-3.49c0.17-1.16,0.41-2.31,0.68-3.44c0.28-1.13,0.61-2.26,1.01-3.35
				c0.4-1.09,0.84-2.18,1.42-3.19c-0.5,1.05-0.86,2.15-1.18,3.26c-0.31,1.11-0.56,2.24-0.75,3.38c-0.19,1.14-0.33,2.28-0.42,3.43
				c-0.1,1.15-0.13,2.3-0.14,3.45L1014,348.48z"/>
		</g>
	</g>
	<g class="st4">
		<g>
			<path class="st5" d="M1034,356.08c-0.1-1.81-0.25-3.63-0.64-5.41c-0.33-1.8-0.89-3.55-1.54-5.27c-0.65-1.72-1.5-3.37-2.45-4.96
				c-0.97-1.58-2.06-3.1-3.37-4.43c1.42,1.22,2.66,2.64,3.78,4.16c1.11,1.52,2.13,3.12,2.95,4.83c0.83,1.7,1.57,3.47,2.08,5.31
				c0.57,1.83,0.9,3.72,1.18,5.62L1034,356.08z"/>
		</g>
		<g>
			<path class="st5" d="M1036,354.07c-0.08-1.78-0.2-3.57-0.52-5.33c-0.27-1.77-0.76-3.51-1.31-5.23c-0.57-1.71-1.3-3.37-2.15-4.98
				c-0.86-1.6-1.83-3.15-3.03-4.53c1.32,1.27,2.44,2.74,3.46,4.28c1.01,1.54,1.91,3.17,2.65,4.87c0.72,1.71,1.39,3.45,1.84,5.27
				c0.5,1.8,0.8,3.65,1.05,5.51L1036,354.07z"/>
		</g>
		<g>
			<path class="st5" d="M1033,348.48c0.1-1.17,0.22-2.34,0.4-3.49c0.17-1.16,0.41-2.31,0.68-3.44c0.28-1.13,0.61-2.26,1.01-3.35
				c0.4-1.09,0.84-2.18,1.42-3.19c-0.5,1.05-0.86,2.15-1.18,3.26c-0.31,1.11-0.56,2.24-0.75,3.38c-0.19,1.14-0.33,2.28-0.42,3.43
				c-0.1,1.15-0.13,2.3-0.14,3.45L1033,348.48z"/>
		</g>
		<g>
			<path class="st5" d="M1036,353.48c0.1-1.17,0.22-2.34,0.4-3.49c0.17-1.16,0.41-2.31,0.68-3.44c0.28-1.13,0.61-2.26,1.01-3.35
				c0.4-1.09,0.84-2.18,1.42-3.19c-0.5,1.05-0.86,2.15-1.18,3.26c-0.31,1.11-0.56,2.24-0.75,3.38c-0.19,1.14-0.33,2.28-0.42,3.43
				c-0.1,1.15-0.13,2.3-0.14,3.45L1036,353.48z"/>
		</g>
	</g>
	<g class="st4">
		<g>
			<path class="st5" d="M840,329.08c-0.1-1.81-0.25-3.63-0.64-5.41c-0.33-1.8-0.89-3.55-1.54-5.27c-0.65-1.72-1.5-3.37-2.45-4.96
				c-0.97-1.58-2.06-3.1-3.37-4.43c1.42,1.22,2.66,2.64,3.78,4.16c1.11,1.52,2.13,3.12,2.95,4.83c0.83,1.7,1.57,3.47,2.08,5.31
				c0.57,1.83,0.9,3.72,1.18,5.62L840,329.08z"/>
		</g>
		<g>
			<path class="st5" d="M842,327.07c-0.08-1.78-0.2-3.57-0.52-5.33c-0.27-1.77-0.76-3.51-1.31-5.23c-0.57-1.71-1.3-3.37-2.15-4.98
				c-0.86-1.6-1.83-3.15-3.03-4.53c1.32,1.27,2.44,2.74,3.46,4.28c1.01,1.54,1.91,3.17,2.65,4.87c0.72,1.71,1.39,3.45,1.84,5.27
				c0.5,1.8,0.8,3.65,1.05,5.51L842,327.07z"/>
		</g>
		<g>
			<path class="st5" d="M839,321.48c0.1-1.17,0.22-2.34,0.4-3.49c0.17-1.16,0.41-2.31,0.68-3.44c0.28-1.13,0.61-2.26,1.01-3.35
				c0.4-1.09,0.84-2.18,1.42-3.19c-0.5,1.05-0.86,2.15-1.18,3.26c-0.31,1.11-0.56,2.24-0.75,3.38c-0.19,1.14-0.33,2.28-0.42,3.43
				c-0.1,1.15-0.13,2.3-0.14,3.45L839,321.48z"/>
		</g>
		<g>
			<path class="st5" d="M842,326.48c0.1-1.17,0.22-2.34,0.4-3.49c0.17-1.16,0.41-2.31,0.68-3.44c0.28-1.13,0.61-2.26,1.01-3.35
				c0.4-1.09,0.84-2.18,1.42-3.19c-0.5,1.05-0.86,2.15-1.18,3.26c-0.31,1.11-0.56,2.24-0.75,3.38c-0.19,1.14-0.33,2.28-0.42,3.43
				c-0.1,1.15-0.13,2.3-0.14,3.45L842,326.48z"/>
		</g>
	</g>
	<g class="st4">
		<g>
			<path class="st5" d="M146,384.08c-0.1-1.81-0.25-3.63-0.64-5.41c-0.33-1.8-0.89-3.55-1.54-5.27c-0.65-1.72-1.5-3.37-2.45-4.96
				c-0.97-1.58-2.06-3.1-3.37-4.43c1.42,1.22,2.66,2.64,3.78,4.16c1.11,1.52,2.13,3.12,2.95,4.83c0.83,1.7,1.57,3.47,2.08,5.31
				c0.57,1.83,0.9,3.72,1.18,5.62L146,384.08z"/>
		</g>
		<g>
			<path class="st5" d="M148,382.07c-0.08-1.78-0.2-3.57-0.52-5.33c-0.27-1.77-0.76-3.51-1.31-5.23c-0.57-1.71-1.3-3.37-2.15-4.98
				c-0.86-1.6-1.83-3.15-3.03-4.53c1.32,1.27,2.44,2.74,3.46,4.28c1.01,1.54,1.91,3.17,2.65,4.87c0.72,1.71,1.39,3.45,1.84,5.27
				c0.5,1.8,0.8,3.65,1.05,5.51L148,382.07z"/>
		</g>
		<g>
			<path class="st5" d="M145,376.48c0.1-1.17,0.22-2.34,0.4-3.49c0.17-1.16,0.41-2.31,0.68-3.44c0.28-1.13,0.61-2.26,1.01-3.35
				c0.4-1.09,0.84-2.18,1.42-3.19c-0.5,1.05-0.86,2.15-1.18,3.26c-0.31,1.11-0.56,2.24-0.75,3.38c-0.19,1.14-0.33,2.28-0.42,3.43
				c-0.1,1.15-0.13,2.3-0.14,3.45L145,376.48z"/>
		</g>
		<g>
			<path class="st5" d="M148,381.48c0.1-1.17,0.22-2.34,0.4-3.49c0.17-1.16,0.41-2.31,0.68-3.44c0.28-1.13,0.61-2.26,1.01-3.35
				c0.4-1.09,0.84-2.18,1.42-3.19c-0.5,1.05-0.86,2.15-1.18,3.26c-0.31,1.11-0.56,2.24-0.75,3.38c-0.19,1.14-0.33,2.28-0.42,3.43
				c-0.1,1.15-0.13,2.3-0.14,3.45L148,381.48z"/>
		</g>
	</g>
	<g class="st4">
		<g>
			<path class="st5" d="M1212,397.08c-0.1-1.81-0.25-3.63-0.64-5.41c-0.33-1.8-0.89-3.55-1.54-5.27c-0.65-1.72-1.5-3.37-2.45-4.96
				c-0.97-1.58-2.06-3.1-3.37-4.43c1.42,1.22,2.66,2.64,3.78,4.16c1.11,1.52,2.13,3.12,2.95,4.83c0.83,1.7,1.57,3.47,2.08,5.31
				c0.57,1.83,0.9,3.72,1.18,5.62L1212,397.08z"/>
		</g>
		<g>
			<path class="st5" d="M1214,395.07c-0.08-1.78-0.2-3.57-0.52-5.33c-0.27-1.77-0.76-3.51-1.31-5.23c-0.57-1.71-1.3-3.37-2.15-4.98
				c-0.86-1.6-1.83-3.15-3.03-4.53c1.32,1.27,2.44,2.74,3.46,4.28c1.01,1.54,1.91,3.17,2.65,4.87c0.72,1.71,1.39,3.45,1.84,5.27
				c0.5,1.8,0.8,3.65,1.05,5.51L1214,395.07z"/>
		</g>
		<g>
			<path class="st5" d="M1211,389.48c0.1-1.17,0.22-2.34,0.4-3.49c0.17-1.16,0.41-2.31,0.68-3.44c0.28-1.13,0.61-2.26,1.01-3.35
				c0.4-1.09,0.84-2.18,1.42-3.19c-0.5,1.05-0.86,2.15-1.18,3.26c-0.31,1.11-0.56,2.24-0.75,3.38c-0.19,1.14-0.33,2.28-0.42,3.43
				c-0.1,1.15-0.13,2.3-0.14,3.45L1211,389.48z"/>
		</g>
		<g>
			<path class="st5" d="M1214,394.48c0.1-1.17,0.22-2.34,0.4-3.49c0.17-1.16,0.41-2.31,0.68-3.44c0.28-1.13,0.61-2.26,1.01-3.35
				c0.4-1.09,0.84-2.18,1.42-3.19c-0.5,1.05-0.86,2.15-1.18,3.26c-0.31,1.11-0.56,2.24-0.75,3.38c-0.19,1.14-0.33,2.28-0.42,3.43
				c-0.1,1.15-0.13,2.3-0.14,3.45L1214,394.48z"/>
		</g>
	</g>
	<g class="st4">
		<g>
			<path class="st5" d="M221,366.08c-0.1-1.81-0.25-3.63-0.64-5.41c-0.33-1.8-0.89-3.55-1.54-5.27c-0.65-1.72-1.5-3.37-2.45-4.96
				c-0.97-1.58-2.06-3.1-3.37-4.43c1.42,1.22,2.66,2.64,3.78,4.16c1.11,1.52,2.13,3.12,2.95,4.83c0.83,1.7,1.57,3.47,2.08,5.31
				c0.57,1.83,0.9,3.72,1.18,5.62L221,366.08z"/>
		</g>
		<g>
			<path class="st5" d="M223,364.07c-0.08-1.78-0.2-3.57-0.52-5.33c-0.27-1.77-0.76-3.51-1.31-5.23c-0.57-1.71-1.3-3.37-2.15-4.98
				c-0.86-1.6-1.83-3.15-3.03-4.53c1.32,1.27,2.44,2.74,3.46,4.28c1.01,1.54,1.91,3.17,2.65,4.87c0.72,1.71,1.39,3.45,1.84,5.27
				c0.5,1.8,0.8,3.65,1.05,5.51L223,364.07z"/>
		</g>
		<g>
			<path class="st5" d="M220,358.48c0.1-1.17,0.22-2.34,0.4-3.49c0.17-1.16,0.41-2.31,0.68-3.44c0.28-1.13,0.61-2.26,1.01-3.35
				c0.4-1.09,0.84-2.18,1.42-3.19c-0.5,1.05-0.86,2.15-1.18,3.26c-0.31,1.11-0.56,2.24-0.75,3.38c-0.19,1.14-0.33,2.28-0.42,3.43
				c-0.1,1.15-0.13,2.3-0.14,3.45L220,358.48z"/>
		</g>
		<g>
			<path class="st5" d="M223,363.48c0.1-1.17,0.22-2.34,0.4-3.49c0.17-1.16,0.41-2.31,0.68-3.44c0.28-1.13,0.61-2.26,1.01-3.35
				c0.4-1.09,0.84-2.18,1.42-3.19c-0.5,1.05-0.86,2.15-1.18,3.26c-0.31,1.11-0.56,2.24-0.75,3.38c-0.19,1.14-0.33,2.28-0.42,3.43
				c-0.1,1.15-0.13,2.3-0.14,3.45L223,363.48z"/>
		</g>
	</g>
</g>
<g id="house">
	<polygon class="st6" points="686,81 685,59 703,59 702,85 	"/>
	<polygon class="st7" points="514,465 765,450 767,228 634,108 500,205 	"/>
	<polygon class="st8" points="295,375 514,465 500,205 481,221 295,187 	"/>
	<polygon class="st9" points="446,185 478,224 656,93 801,238 825,208 660,38 	"/>
	<polygon class="st10" points="259,158 279,190 478,224 446,185 	"/>
	<polygon class="st6" points="449,22 660,38 446,185 259,158 	"/>
	<polygon class="st10" points="767,236 801,238 656,93 634.5,108.5 767,231 	"/>
	<polygon class="st9" points="609,459.4 602,299 707,299 701,454 	"/>
	<polygon class="st11" points="616,311 696,309 695,363 619,370 	"/>
	<polygon class="st9" points="321,266 319,317 360,333 363,274 	"/>
	<polygon class="st9" points="391,340 397,280 449,284 443,360 	"/>
	<polygon class="st11" points="402,286 396.67,336 436,351 443,291 	"/>
	<polygon class="st11" points="325,273 358,280 354,325 325,315 	"/>
</g>
<g id="light_snow" class="st3">
	<g id="roof" class="st4">
		<polygon class="st12" points="260,151 259,158 446,185 446,178 		"/>
		<polygon class="st13" points="825,208 823,195 660,29 446,178 446,185 660,38 		"/>
		<polygon class="st14" points="458,10 660,29 446,178 260,151 		"/>
		<polygon class="st14" points="703,59 702,56 686.51,56 689.46,59 		"/>
	</g>
	<g id="around_house" class="st4">
		<polygon class="st15" points="787,459 511,475 513.5,455.5 765.1,438.84 		"/>
		<polygon class="st16" points="765.2,428.24 787,459 765,439 		"/>
		<polygon class="st17" points="295,360 278,377 295,368 		"/>
		<polygon class="st14" points="278,377 295,368 513.5,455.63 511,475 		"/>
	</g>
</g>
<g id="moderate_snow">
	<g id="roof_1_">
		<polygon class="st14" points="703,59 702,54 687,54 689.46,59 		"/>
		<polygon class="st12" points="260,145 259,158 446,185 446,172 		"/>
		<polygon class="st13" points="825,208 823,190 660,23 446,172 446,185 660,38 		"/>
		<polygon class="st14" points="458,4 660,23 446,172 260,145 		"/>
	</g>
	<g id="around_house_1_">
		<polygon class="st15" points="789,461 510,477 513.5,450.5 765.1,433.84 		"/>
		<polygon class="st16" points="765.2,428.24 789,461 765,434 		"/>
		<polygon class="st17" points="295,360 277,378 295,363 		"/>
		<polygon class="st14" points="277,378 295,363 513.5,450.63 510,477 		"/>
	</g>
</g>
<g id="heavy_snow" class="st3">
	<g id="roof_2_" class="st4">
		<polygon class="st14" points="703,59 702,54 687,54 689.46,59 		"/>
		<polygon class="st12" points="260,134 259,158 446,185 446,161 		"/>
		<polygon class="st13" points="825,208 822,173 661,8 446,161 446,185 660,38 		"/>
		<polygon class="st14" points="458,-7 661,8 446,161 260,134 		"/>
	</g>
	<g id="around_house_2_" class="st4">
		<polygon class="st15" points="789,461 509,478 512.8,443.5 765.2,428.7 		"/>
		<polygon class="st16" points="765.2,428.24 789,461 765.2,428.7 		"/>
		<polygon class="st17" points="295,360 277,378 295,359 		"/>
		<polygon class="st14" points="276,378 295,351 512.8,443.5 509,478 		"/>
	</g>
</g>
</svg>
