<svg id="Layer_3" data-name="Layer 3" xmlns="http://www.w3.org/2000/svg" viewBox="0 0 1003.95 1002.94"><defs><style>.cls-1{fill-rule:evenodd;}</style></defs><title>Logo</title><polygon id="H" class="cls-1" points="1001 235.25 943.82 235.25 868.3 446.1 733.83 446.1 810.41 235.25 752.04 235.25 666.27 474.68 752.04 714.11 809.22 714.11 733.27 502.08 867.87 502.08 943.82 714.11 1001 714.11 915.23 474.68 1001 235.25"/><g id="R"><polygon id="bottom" class="cls-1" points="544.31 773.04 403.59 772.95 392.92 802.73 392.89 802.73 359.57 895.83 367.21 895.83 367.21 895.83 588.29 895.83 544.31 773.04"/><polygon id="middle" class="cls-1" points="545.45 617.02 459.54 616.91 422.73 719.58 582.16 719.5 545.45 617.02"/><polygon id="top" class="cls-1" points="620.38 507.31 502.51 507.31 384.63 507.31 245.21 895.83 302.39 895.83 388.15 656.21 388.27 656.21 421.51 563.49 426.27 563.49 478.69 563.49 526.28 563.49 583.46 563.49 583.51 563.49 590.67 583.64 658.55 773.14 601.52 773.14 645.47 895.83 759.81 895.83 620.38 507.31"/></g><g id="W"><polygon id="bottom-2" data-name="bottom" class="cls-1" points="702.61 55 616.86 294.39 616.79 294.39 583.51 387.3 526.33 387.3 502.51 321.78 478.69 387.3 421.51 387.3 388.23 294.39 388.15 294.39 302.4 55 245.21 55 384.63 443.52 502.51 443.52 620.38 443.52 759.81 55 702.61 55"/><polygon id="top-2" data-name="top" class="cls-1" points="392.85 147.87 392.92 147.87 450.01 307.25 502.51 159.78 555.01 307.25 612.1 147.87 612.17 147.87 645.44 55 638.02 55 637.81 55 367.21 55 367 55 359.58 55 392.85 147.87"/></g><path id="D" d="M274.08,295.35l-94.91-60.09H3.59L89.36,474.68,3.59,714.11H192.48L275,651.51l63.35-176.83Zm-36.31,300.4-82.19,62.38H80.82l65.71-183.45L80.82,291.24H141.5l94.82,60,44.82,123.4Z"/></svg>