<?xml version="1.0" encoding="utf-8"?>
<!-- Generator: Adobe Illustrator 23.0.2, SVG Export Plug-In . SVG Version: 6.00 Build 0)  -->
<svg version="1.1" xmlns="http://www.w3.org/2000/svg" xmlns:xlink="http://www.w3.org/1999/xlink" x="0px" y="0px"
	 viewBox="0 0 1280 1024" style="enable-background:new 0 0 1280 1024;" xml:space="preserve">
<style type="text/css">
	.st0{fill:#CEE9F2;}
</style>
<g id="Layer_1">
	<path class="st0" d="M1058.32,813c0,0,12.68,24.27,12.68,31.33c0,6.88-5.98,13.76-12.68,13.76s-10.32-6.34-10.32-13.76
		C1048,838.17,1058.32,813,1058.32,813z"/>
	<path class="st0" d="M902.32,621c0,0,12.68,24.27,12.68,31.33c0,6.88-5.98,13.76-12.68,13.76c-6.7,0-10.32-6.34-10.32-13.76
		C892,646.17,902.32,621,902.32,621z"/>
	<path class="st0" d="M667.32,804c0,0,12.68,24.27,12.68,31.33c0,6.88-5.98,13.76-12.68,13.76c-6.7,0-10.32-6.34-10.32-13.76
		C657,829.17,667.32,804,667.32,804z"/>
	<path class="st0" d="M239.32,587c0,0,12.68,24.27,12.68,31.33c0,6.88-5.98,13.76-12.68,13.76S229,625.76,229,618.33
		C229,612.17,239.32,587,239.32,587z"/>
	<path class="st0" d="M532.32,305c0,0,12.68,24.27,12.68,31.33c0,6.88-5.98,13.76-12.68,13.76c-6.7,0-10.32-6.34-10.32-13.76
		C522,330.17,532.32,305,532.32,305z"/>
	<path class="st0" d="M93.32,918c0,0,12.68,24.27,12.68,31.33c0,6.88-5.98,13.76-12.68,13.76c-6.7,0-10.32-6.34-10.32-13.76
		C83,943.17,93.32,918,93.32,918z"/>
	<path class="st0" d="M154.32,129c0,0,12.68,24.27,12.68,31.33c0,6.88-5.98,13.76-12.68,13.76S144,167.76,144,160.33
		C144,154.17,154.32,129,154.32,129z"/>
	<path class="st0" d="M332.32,97c0,0,12.68,24.27,12.68,31.33c0,6.88-5.98,13.76-12.68,13.76c-6.7,0-10.32-6.34-10.32-13.76
		C322,122.17,332.32,97,332.32,97z"/>
	<path class="st0" d="M644.32,524c0,0,12.68,24.27,12.68,31.33c0,6.88-5.98,13.76-12.68,13.76c-6.7,0-10.32-6.34-10.32-13.76
		C634,549.17,644.32,524,644.32,524z"/>
	<path class="st0" d="M397.32,827c0,0,12.68,24.27,12.68,31.33c0,6.88-5.98,13.76-12.68,13.76c-6.7,0-10.32-6.34-10.32-13.76
		C387,852.17,397.32,827,397.32,827z"/>
	<path class="st0" d="M1132.32,501c0,0,12.68,24.27,12.68,31.33c0,6.88-5.98,13.76-12.68,13.76s-10.32-6.34-10.32-13.76
		C1122,526.17,1132.32,501,1132.32,501z"/>
	<path class="st0" d="M800.32,52c0,0,12.68,24.27,12.68,31.33c0,6.88-5.98,13.76-12.68,13.76c-6.7,0-10.32-6.34-10.32-13.76
		C790,77.17,800.32,52,800.32,52z"/>
	<path class="st0" d="M1035.32,217c0,0,12.68,24.27,12.68,31.33c0,6.88-5.98,13.76-12.68,13.76s-10.32-6.34-10.32-13.76
		C1025,242.17,1035.32,217,1035.32,217z"/>
</g>
<g id="Layer_2">
</g>
<g id="Layer_3">
</g>
</svg>
