<?xml version="1.0" encoding="utf-8"?>
<!-- Generator: Adobe Illustrator 23.0.2, SVG Export Plug-In . SVG Version: 6.00 Build 0)  -->
<svg version="1.1" xmlns="http://www.w3.org/2000/svg" xmlns:xlink="http://www.w3.org/1999/xlink" x="0px" y="0px"
	 viewBox="0 0 1280 1024" style="enable-background:new 0 0 1280 1024;" xml:space="preserve">
<style type="text/css">
	.st0{fill:#F4F4F4;}
</style>
<g id="Layer_1">
	<circle class="st0" cx="273.5" cy="274.5" r="6.5"/>
	<circle class="st0" cx="530.5" cy="407.5" r="6.5"/>
	<circle class="st0" cx="776.5" cy="287.5" r="6.5"/>
	<circle class="st0" cx="1104.5" cy="424.5" r="6.5"/>
	<circle class="st0" cx="895.5" cy="567.5" r="6.5"/>
	<circle class="st0" cx="286.5" cy="594.5" r="6.5"/>
	<circle class="st0" cx="563.5" cy="798.5" r="6.5"/>
	<circle class="st0" cx="1117.5" cy="855.5" r="6.5"/>
	<circle class="st0" cx="862.5" cy="893.5" r="6.5"/>
	<circle class="st0" cx="322.5" cy="900.5" r="6.5"/>
	<circle class="st0" cx="74.5" cy="811.5" r="6.5"/>
	<circle class="st0" cx="95.5" cy="116.5" r="6.5"/>
	<circle class="st0" cx="517.5" cy="59.5" r="6.5"/>
	<circle class="st0" cx="1018.5" cy="116.5" r="6.5"/>
	<circle class="st0" cx="1209.5" cy="52.5" r="6.5"/>
	<circle class="st0" cx="1145.5" cy="648.5" r="6.5"/>
	<circle class="st0" cx="974.5" cy="723.5" r="6.5"/>
	<circle class="st0" cx="648.5" cy="600.5" r="6.5"/>
	<circle class="st0" cx="299.5" cy="65.5" r="6.5"/>
	<circle class="st0" cx="88.5" cy="360.5" r="6.5"/>
	<circle class="st0" cx="129.5" cy="581.5" r="6.5"/>
	<circle class="st0" cx="690.5" cy="148.5" r="6.5"/>
</g>
<g id="Layer_2">
</g>
<g id="Layer_3">
</g>
</svg>
