<?xml version="1.0" encoding="utf-8"?>
<!-- Generator: Adobe Illustrator 23.0.2, SVG Export Plug-In . SVG Version: 6.00 Build 0)  -->
<svg version="1.1" xmlns="http://www.w3.org/2000/svg" xmlns:xlink="http://www.w3.org/1999/xlink" x="0px" y="0px"
	 viewBox="0 0 1280 1024" style="enable-background:new 0 0 1280 1024;" xml:space="preserve">
<style type="text/css">
	.st0{fill:none;stroke:#DEDEE2;stroke-width:40;stroke-linecap:round;stroke-miterlimit:10;}
</style>
<g id="Layer_1">
	<path class="st0" d="M119.16,435.7c0,0,530.08,9.34,598.36,3.87c105.34-8.44,204.03-68.61,242.33-147.31s-3.38-252.68-137.2-255.22
		c-97.58-1.85-169.41,66.92-184.25,135.39c-14.59,67.33-9.57,112.48-6.66,151.52"/>
	<path class="st0" d="M300.46,540.24c0,0,571.39,2.33,644.84,9.82c113.31,11.56,218.24,78.7,257.67,164.4
		s-9.55,272.19-153.81,271.79c-105.19-0.29-180.98-76.07-195.37-150.2c-14.15-72.89-7.68-121.43-3.63-163.42"/>
	<path class="st0" d="M57,661.78c0,0,367.4,1.5,414.62,6.32c72.86,7.43,140.33,50.6,165.68,105.71
		c25.35,55.11-6.14,175.01-98.9,174.76c-67.64-0.18-116.37-48.91-125.62-96.58c-9.1-46.87-4.94-78.08-2.33-105.08"/>
</g>
<g id="Layer_2">
</g>
<g id="Layer_3">
</g>
</svg>
